<svg width="24" height="25" viewBox="0 0 24 25" fill="none" xmlns="http://www.w3.org/2000/svg">
<g id="Frame 427322523">
<path id="Vector 21" d="M3.75 4.25V18.75C3.75 19.8546 4.64543 20.75 5.75 20.75H20.25" stroke="#2B2B2B" stroke-linecap="round"/>
<path id="Vector 23" d="M19.5 18.5L21.75 20.75L19.5 23" stroke="#2B2B2B" stroke-linecap="round" stroke-linejoin="round"/>
<path id="Vector 22" d="M1.5 5L3.75 2.75L6 5" stroke="#2B2B2B" stroke-linecap="round" stroke-linejoin="round"/>
<path id="Vector 24" d="M7.5 2.75H20.5C21.6046 2.75 22.5 3.64543 22.5 4.75V17.75" stroke="#2B2B2B" stroke-linecap="round"/>
<path id="Vector" d="M13.6721 17.0245C13.8212 17.0243 13.9642 16.965 14.0697 16.8595C14.1751 16.7541 14.2344 16.6111 14.2346 16.462V11.0373C14.2357 10.6027 14.1048 10.1779 13.8593 9.81927C13.6138 9.46061 13.2653 9.18489 12.8597 9.02857C12.4542 8.87224 12.0107 8.84268 11.588 8.94378C11.1653 9.04488 10.7832 9.27188 10.4923 9.59478C10.2913 9.37232 10.0461 9.19427 9.77236 9.07203C9.49862 8.94979 9.20237 8.88605 8.90257 8.88489C8.54232 8.88478 8.18813 8.97762 7.87425 9.15442C7.86722 9.00778 7.80314 8.8697 7.69569 8.76967C7.58824 8.66964 7.44593 8.61559 7.29917 8.61905C7.1524 8.62252 7.01281 8.68323 6.9102 8.78822C6.80759 8.89321 6.7501 9.03416 6.75 9.18097V16.462C6.75 16.6112 6.80926 16.7542 6.91475 16.8597C7.02024 16.9652 7.16332 17.0245 7.3125 17.0245C7.46168 17.0245 7.60476 16.9652 7.71025 16.8597C7.81574 16.7542 7.875 16.6112 7.875 16.462V11.0373C7.87552 10.7651 7.98399 10.5043 8.17661 10.3121C8.36923 10.1198 8.63026 10.0118 8.9024 10.0118C9.17455 10.0118 9.43558 10.1198 9.6282 10.3121C9.82082 10.5043 9.92929 10.7651 9.92981 11.0373V16.462C9.92981 16.6112 9.98907 16.7542 10.0946 16.8597C10.2001 16.9652 10.3431 17.0245 10.4923 17.0245C10.6415 17.0245 10.7846 16.9652 10.8901 16.8597C10.9955 16.7542 11.0548 16.6112 11.0548 16.462V11.0373C11.0548 10.7648 11.1631 10.5035 11.3557 10.3108C11.5484 10.1181 11.8097 10.0099 12.0822 10.0099C12.3547 10.0099 12.616 10.1181 12.8087 10.3108C13.0014 10.5035 13.1096 10.7648 13.1096 11.0373V16.462C13.1098 16.6111 13.1691 16.7541 13.2745 16.8595C13.38 16.965 13.523 17.0243 13.6721 17.0245Z" fill="#2B2B2B"/>
<path id="Vector_2" d="M18.0579 9.20868L18.1472 9.08691C18.3324 8.81428 18.4315 8.49236 18.4318 8.16278C18.4318 7.72178 18.2566 7.29885 17.9447 6.98702C17.6329 6.67519 17.21 6.5 16.769 6.5C16.328 6.5 15.9051 6.67519 15.5932 6.98702C15.2814 7.29885 15.1062 7.72178 15.1062 8.16278C15.1062 8.31196 15.1655 8.45504 15.271 8.56053C15.3764 8.66602 15.5195 8.72528 15.6687 8.72528C15.8179 8.72528 15.961 8.66602 16.0664 8.56053C16.1719 8.45504 16.2312 8.31196 16.2312 8.16278C16.2317 8.08108 16.2507 8.00056 16.287 7.92733C16.3232 7.8541 16.3757 7.7901 16.4403 7.74017C16.505 7.69024 16.5802 7.6557 16.6602 7.63918C16.7402 7.62266 16.823 7.62458 16.9021 7.64481C16.9813 7.66504 17.0548 7.70304 17.1171 7.75592C17.1794 7.80881 17.2288 7.87518 17.2616 7.95002C17.2943 8.02485 17.3097 8.10617 17.3063 8.18781C17.303 8.26944 17.2811 8.34925 17.2423 8.42115L15.4889 10.3035C15.3944 10.4042 15.3315 10.5304 15.3078 10.6665C15.2841 10.8026 15.3007 10.9426 15.3556 11.0694C15.4105 11.1962 15.5012 11.3041 15.6166 11.38C15.732 11.4559 15.8671 11.4963 16.0053 11.4964H17.8345C17.9837 11.4964 18.1267 11.4371 18.2322 11.3317C18.3377 11.2262 18.397 11.0831 18.397 10.9339C18.397 10.7847 18.3377 10.6417 18.2322 10.5362C18.1267 10.4307 17.9837 10.3714 17.8345 10.3714H16.9695L18.0169 9.25777C18.0311 9.24218 18.045 9.22571 18.0579 9.20868Z" fill="#2B2B2B"/>
</g>
</svg>
