<svg width="64" height="64" viewBox="0 0 64 64" fill="none" xmlns="http://www.w3.org/2000/svg">
<path fill-rule="evenodd" clip-rule="evenodd" d="M31.8978 0.969727C37.667 1.03556 42.8788 2.45345 47.5334 5.22339C52.1325 7.93803 55.9582 11.7872 58.6448 16.4027C61.3979 21.0853 62.8072 26.3288 62.8728 32.1331C62.7093 40.0747 60.2045 46.8577 55.3582 52.4819C50.512 58.1062 44.3051 61.5857 37.8798 62.9196V40.6536H43.9544L45.3282 31.9036H36.1298V26.1726C36.0788 24.9845 36.4545 23.8174 37.1891 22.8822C37.9247 21.9445 39.2201 21.4516 41.0753 21.4036H46.6298V13.7388C46.5501 13.7132 45.7939 13.6118 44.3611 13.4346C42.7361 13.2445 41.1021 13.1429 39.4661 13.1304C35.7633 13.1475 32.835 14.192 30.6809 16.2638C28.5269 18.3351 27.4265 21.3318 27.3799 25.254V31.9036H20.3799V40.6536H27.3799V62.9196C19.4905 61.5857 13.2836 58.1062 8.43738 52.4819C3.59113 46.8577 1.08638 40.0747 0.922852 32.1331C0.988277 26.3285 2.39759 21.0851 5.1508 16.4027C7.8374 11.7872 11.6632 7.93804 16.2623 5.22339C20.9167 2.45398 26.1286 1.03609 31.8978 0.969727Z" fill="#377BE3"/>
</svg>
