<svg xmlns="http://www.w3.org/2000/svg" version="1.1" xmlns:xlink="http://www.w3.org/1999/xlink" width="36" height="36" x="0" y="0" viewBox="0 0 512 512" style="enable-background:new 0 0 512 512" xml:space="preserve" class=""><g><path d="M120 358.484V421H75c-8.291 0-15 6.709-15 15s6.709 15 15 15h45v46c0 8.291 6.709 15 15 15s15-6.709 15-15v-46h45c8.291 0 15-6.709 15-15s-6.709-15-15-15h-45v-62.456c10.203-1.309 20.167-3.38 29.614-6.716-8.61-7.167-16.421-15.233-23.423-23.983A104.977 104.977 0 0 1 135 330c-57.891 0-105-47.109-105-105s47.109-105 105-105c59.828 0 105 51.031 105 105 0 17.375-4.649 33.532-12.155 47.983 6.557 7.798 14.575 14.198 23.76 18.814C262.985 272.016 270 249.413 270 225c0-69.576-57.22-135-135-135C60.557 90 0 150.557 0 225c0 69.307 52.685 125.911 120 133.484z" fill="#000000" opacity="1" data-original="#000000" class=""></path><path d="M497 0h-90c-8.291 0-15 6.709-15 15s6.709 15 15 15h53.789l-91.993 89.993C345.699 101.517 316.813 90 285 90c-15.712 0-30.577 3.215-44.614 8.172 8.61 7.167 16.421 15.233 23.423 23.983A104.977 104.977 0 0 1 285 120c57.891 0 105 47.109 105 105s-47.109 105-105 105c-59.423 0-105-50.471-105-105 0-17.375 4.649-33.532 12.155-47.983-6.557-7.798-14.575-14.198-23.76-18.814C157.015 177.984 150 200.587 150 225c0 70.254 58.757 135 135 135 74.443 0 135-60.557 135-135 0-31.813-11.517-60.699-29.993-83.796L482 51.211V105c0 8.291 6.709 15 15 15s15-6.709 15-15V15c0-8.207-6.727-15-15-15z" fill="#000000" opacity="1" data-original="#000000" class=""></path></g></svg>