<svg width="64" height="64" viewBox="0 0 64 64" fill="none" xmlns="http://www.w3.org/2000/svg">
<g clip-path="url(#clip0_243_2223)">
<path d="M32 0C14.326 0 0 14.328 0 32C0 49.672 14.326 64 32 64C49.672 64 64 49.672 64 32C64 14.328 49.674 0 32 0ZM32.346 49.192C22.848 49.192 15.154 41.498 15.154 32C15.154 22.502 22.848 14.808 32.346 14.808C36.988 14.808 40.868 16.518 43.842 19.288L38.996 24.134V24.124C37.192 22.404 34.902 21.524 32.346 21.524C26.674 21.524 22.064 26.316 22.064 31.988C22.064 37.66 26.674 42.464 32.346 42.464C37.492 42.464 40.996 39.52 41.716 35.48H32.346V28.774H48.516C48.73 29.922 48.848 31.128 48.848 32.384C48.848 42.208 42.272 49.192 32.346 49.192Z" fill="#D54129"/>
</g>
<defs>
<clipPath id="clip0_243_2223">
<rect width="64" height="64" fill="white"/>
</clipPath>
</defs>
</svg>
