<svg width="32" height="32" viewBox="0 0 32 32" fill="none" xmlns="http://www.w3.org/2000/svg">
<g id="Heart">
<path id="Vector 4" d="M26.5561 17.7262L26.5518 17.7307C22.9699 21.4722 20.6494 23.5245 16.2818 26.5863C16.1151 26.7031 15.8925 26.7025 15.7264 26.5848C11.6686 23.7078 9.28805 21.6857 5.44372 17.7263C1.14859 13.2954 1.82676 8.28445 4.31942 5.63291C5.57546 4.29681 7.29395 3.54246 9.1555 3.68366C11.0133 3.82457 13.1594 4.8707 15.2224 7.421C15.4123 7.6557 15.698 7.79208 15.9999 7.79208C16.3018 7.79208 16.5875 7.6557 16.7774 7.421C18.8404 4.8707 20.9865 3.82458 22.8443 3.68366C24.7059 3.54246 26.4244 4.29681 27.6804 5.63291C30.1731 8.28445 30.8512 13.2954 26.5561 17.7262Z" stroke="white" stroke-width="2" stroke-linecap="round" stroke-linejoin="round"/>
</g>
</svg>
