<svg width="73" height="48" viewBox="0 0 73 48" fill="none" xmlns="http://www.w3.org/2000/svg">
<g id="logo">
<path id="Path 1008" d="M5.45138 48L5.45296 47.9985C3.52864 46.5451 2.02034 44.6041 1.08137 42.3729C0.142182 40.1412 -0.193942 37.6987 0.107166 35.2936C0.408274 32.8885 1.33588 30.6066 2.79567 28.68C4.25547 26.7534 6.1954 25.2507 8.41825 24.3246C8.31358 23.457 8.26042 22.5838 8.25904 21.7098C8.26196 16.748 9.9502 11.9367 13.043 8.07623C16.1357 4.21573 20.4466 1.53869 25.2586 0.490383C30.0705 -0.557928 35.0936 0.0856701 39.4922 2.31413C43.8909 4.54258 47.4 8.22159 49.436 12.7392C50.9567 11.6045 52.7889 10.9725 54.6805 10.9298C56.5722 10.8872 58.4305 11.4362 60 12.5013C61.5695 13.5663 62.7732 15.0952 63.4455 16.8778C64.1179 18.6603 64.2259 20.609 63.7548 22.4559C66.1521 23.3991 68.2578 24.9671 69.8565 26.9996C71.4553 29.0321 72.4896 31.4561 72.8538 34.0238C73.218 36.5914 72.8989 39.2104 71.9292 41.6129C70.9595 44.0155 69.374 46.1153 67.3349 47.6976L54.9887 35.7415L48.9302 29.8561L43.1597 24.2459C41.3625 22.5232 38.9771 21.5626 36.4969 21.5626C34.0167 21.5626 31.6313 22.5232 29.8341 24.2459L5.45296 47.9985C5.45339 47.9988 5.45382 47.9991 5.45425 47.9994L5.45138 48Z" fill="url(#paint0_linear_535_770)"/>
<g id="Group 2">
<ellipse id="Ellipse 328" cx="33.0149" cy="35.5713" rx="2.13034" ry="2.14286" fill="#F2584C"/>
<ellipse id="Ellipse 330" cx="33.0149" cy="42.4285" rx="2.13034" ry="2.14286" fill="#F2584C"/>
<ellipse id="Ellipse 329" cx="39.8056" cy="35.5713" rx="2.13034" ry="2.14286" fill="#F2584C"/>
<ellipse id="Ellipse 331" cx="39.8056" cy="42.4285" rx="2.13034" ry="2.14286" fill="#F2584C"/>
</g>
</g>
<defs>
<linearGradient id="paint0_linear_535_770" x1="24.382" y1="2.59328e-07" x2="36.5162" y2="51.3348" gradientUnits="userSpaceOnUse">
<stop stop-color="#F9A642"/>
<stop offset="1" stop-color="#EE2D52"/>
</linearGradient>
</defs>
</svg>
