<svg width="36" height="36" viewBox="0 0 36 36" fill="none" xmlns="http://www.w3.org/2000/svg">
<g id="vuesax/outline/lock">
<g id="lock">
<path id="Vector" d="M27 16.125C26.385 16.125 25.875 15.615 25.875 15V12C25.875 7.275 24.54 4.125 18 4.125C11.46 4.125 10.125 7.275 10.125 12V15C10.125 15.615 9.615 16.125 9 16.125C8.385 16.125 7.875 15.615 7.875 15V12C7.875 7.65 8.925 1.875 18 1.875C27.075 1.875 28.125 7.65 28.125 12V15C28.125 15.615 27.615 16.125 27 16.125Z" fill="#2B2B2B"/>
<path id="Vector_2" d="M25.5 34.125H10.5C3.885 34.125 1.875 32.115 1.875 25.5V22.5C1.875 15.885 3.885 13.875 10.5 13.875H25.5C32.115 13.875 34.125 15.885 34.125 22.5V25.5C34.125 32.115 32.115 34.125 25.5 34.125ZM10.5 16.125C5.13 16.125 4.125 17.145 4.125 22.5V25.5C4.125 30.855 5.13 31.875 10.5 31.875H25.5C30.87 31.875 31.875 30.855 31.875 25.5V22.5C31.875 17.145 30.87 16.125 25.5 16.125H10.5Z" fill="#2B2B2B"/>
<path id="Vector_3" d="M12 25.5C11.805 25.5 11.61 25.455 11.43 25.38C11.235 25.305 11.085 25.2 10.935 25.065C10.665 24.78 10.5 24.405 10.5 24C10.5 23.805 10.545 23.61 10.62 23.43C10.695 23.235 10.8 23.085 10.935 22.935C11.085 22.8 11.235 22.695 11.43 22.62C11.97 22.38 12.645 22.515 13.065 22.935C13.2 23.085 13.305 23.25 13.38 23.43C13.455 23.61 13.5 23.805 13.5 24C13.5 24.39 13.335 24.78 13.065 25.065C12.78 25.335 12.39 25.5 12 25.5Z" fill="#2B2B2B"/>
<path id="Vector_4" d="M18 25.5001C17.61 25.5001 17.22 25.335 16.935 25.065C16.665 24.78 16.5 24.4051 16.5 24.0001C16.5 23.8051 16.53 23.61 16.62 23.43C16.695 23.25 16.8 23.0851 16.935 22.9351C17.28 22.5901 17.805 22.425 18.285 22.53C18.39 22.545 18.48 22.575 18.57 22.62C18.66 22.65 18.75 22.6951 18.84 22.7551C18.915 22.8001 18.99 22.8751 19.065 22.9351C19.2 23.0851 19.305 23.25 19.38 23.43C19.455 23.61 19.5 23.8051 19.5 24.0001C19.5 24.4051 19.335 24.78 19.065 25.065C18.99 25.125 18.915 25.185 18.84 25.245C18.75 25.305 18.66 25.3501 18.57 25.3801C18.48 25.4251 18.39 25.4551 18.285 25.4701C18.195 25.4851 18.09 25.5001 18 25.5001Z" fill="#2B2B2B"/>
<path id="Vector_5" d="M24 25.5001C23.595 25.5001 23.22 25.335 22.935 25.065C22.8 24.915 22.695 24.7501 22.62 24.5701C22.545 24.3901 22.5 24.1951 22.5 24.0001C22.5 23.6101 22.665 23.2201 22.935 22.9351C23.01 22.8751 23.085 22.8151 23.16 22.7551C23.25 22.6951 23.34 22.65 23.43 22.62C23.52 22.575 23.61 22.545 23.7 22.53C24.195 22.425 24.705 22.5901 25.065 22.9351C25.335 23.2201 25.5 23.5951 25.5 24.0001C25.5 24.1951 25.455 24.3901 25.38 24.5701C25.305 24.7651 25.2 24.915 25.065 25.065C24.78 25.335 24.39 25.5001 24 25.5001Z" fill="#2B2B2B"/>
</g>
</g>
</svg>
